<svg width="217" height="207" viewBox="0 0 217 207" fill="none" xmlns="http://www.w3.org/2000/svg">
<path opacity="0.5" fill-rule="evenodd" clip-rule="evenodd" d="M216.906 107.47C216.816 109.548 216.661 111.61 216.443 113.654L106.473 0.0177002C107.147 0.00598145 107.823 0 108.5 0C110.003 0 111.499 0.0290527 112.987 0.0865479L216.906 107.47ZM98.0724 0.470215C100.398 0.259399 102.746 0.118286 105.112 0.0493164L216.298 114.941C216.03 117.175 215.687 119.388 215.272 121.576L98.0724 0.470215ZM211.425 135.868C212.004 134.22 212.541 132.553 213.035 130.869L88.1414 1.81287C86.3329 2.13928 84.5402 2.5083 82.7647 2.91882L211.425 135.868ZM81.6324 3.18689C79.3797 3.73242 77.1552 4.34497 74.9613 5.02209L208.566 143.081C209.461 141.058 210.289 139.003 211.049 136.917L81.6324 3.18689ZM215.102 83.8344C214.497 80.7966 213.752 77.8059 212.873 74.8687L146.825 6.61865C143.813 5.53748 140.737 4.57996 137.604 3.75269L215.102 83.8344ZM135.756 3.28162C132.342 2.44189 128.863 1.75623 125.327 1.23291L216.72 95.6726C216.464 92.2744 216.035 88.9218 215.441 85.6226L135.756 3.28162ZM208.125 144.063C207.234 146.021 206.281 147.947 205.269 149.84L67.5981 7.58008C69.6658 6.77954 71.7652 6.03784 73.8942 5.3573L208.125 144.063ZM54.7003 13.5524C56.7767 12.4231 58.8961 11.3573 61.0557 10.3575L201.811 155.805C194.849 166.928 185.748 176.701 175.048 184.611L28.6384 33.3217C29.7116 32.213 30.8099 31.1267 31.9326 30.0637L178 181L178.719 180.305L32.6621 29.3795C34.1439 28.0026 35.667 26.6656 37.2296 25.3706L183 176L183.719 175.305L38.005 24.7339C39.5824 23.4512 41.1988 22.2107 42.8525 21.0143L188 171L188.719 170.305L43.6744 20.4255C44.9511 19.5199 46.2495 18.6403 47.5687 17.7876L191 166L191.719 165.305L48.4282 17.2378C50.1809 16.1279 51.9695 15.0653 53.7921 14.0518L196 161L196.719 160.305L54.7003 13.5524ZM66.5898 7.9762C65.0483 8.59045 63.5248 9.23755 62.0204 9.9165L202.354 154.928C203.191 153.559 203.997 152.17 204.769 150.761L66.5898 7.9762ZM27.9458 34.0441L174.233 185.208C172.771 186.267 171.28 187.293 169.761 188.282L24.352 38.0258C25.5148 36.6694 26.7132 35.3418 27.9458 34.0441ZM217 103.142C217 104.126 216.986 105.107 216.957 106.084L114.442 0.1521C117.57 0.312622 120.663 0.598999 123.716 1.00623L216.824 97.2183C216.941 99.1787 217 101.154 217 103.142ZM213.353 129.76C213.997 127.461 214.559 125.131 215.037 122.772L96.7994 0.592773C94.2834 0.849243 91.7931 1.1875 89.3315 1.60461L213.353 129.76ZM212.212 72.7482C210.483 67.4097 208.31 62.256 205.735 57.3259L164.642 14.8635C159.673 12.0017 154.444 9.50842 148.995 7.42334L212.212 72.7482ZM23.7016 38.7916L168.905 188.835C167.157 189.95 165.374 191.018 163.557 192.037L19.8999 43.5919C21.119 41.9559 22.3869 40.3552 23.7016 38.7916ZM151.515 197.861C153.514 197.039 155.482 196.162 157.417 195.231L16.0406 49.142C14.9031 50.8983 13.8194 52.6895 12.7917 54.5134L151.515 197.861ZM16.6022 48.2843L158.363 194.771C159.812 194.057 161.242 193.313 162.651 192.54L19.2981 44.408C18.3698 45.6796 17.4709 46.9719 16.6022 48.2843ZM12.2836 55.4264L150.515 198.266C148.466 199.085 146.385 199.845 144.275 200.546L9.37156 61.146C10.2819 59.2072 11.2533 57.2998 12.2836 55.4264ZM8.92123 62.1187L143.217 200.891C141.563 201.422 139.891 201.916 138.202 202.371L6.94943 66.743C7.56844 65.1832 8.22607 63.6414 8.92123 62.1187ZM6.54939 67.7677L137.095 202.664C135.63 203.044 134.154 203.395 132.665 203.716L5.07551 71.8734C5.53726 70.4919 6.02879 69.1232 6.54939 67.7677ZM4.72331 72.9474L131.51 203.96C129.695 204.332 127.864 204.662 126.017 204.947L3.22912 78.0654C3.682 76.3418 4.1805 74.6354 4.72331 72.9474ZM2.93766 79.2023L124.801 205.127C122.281 205.488 119.733 205.767 117.159 205.96L1.42725 86.3701C1.84332 83.9515 2.34787 81.5613 2.93766 79.2023ZM108.5 206.284C110.972 206.284 113.425 206.205 115.855 206.051L1.22401 87.5981C0.816551 90.1609 0.50827 92.7544 0.303017 95.3752L107.631 206.281C107.92 206.283 108.21 206.284 108.5 206.284ZM106.221 206.262L0.207275 96.7141C0.0697632 98.8401 0 100.983 0 103.142V103.162L99.4534 205.931C101.691 206.106 103.947 206.217 106.221 206.262ZM97.9369 205.802L0.0107803 104.611C0.0569534 107.755 0.251114 110.865 0.586937 113.935L88.2153 204.485C91.4086 205.059 94.6513 205.5 97.9369 205.802ZM76.2407 201.649C71.127 200.137 66.1756 198.275 61.4173 196.093L7.13258 139.999C5.25019 135.323 3.71548 130.484 2.55851 125.51L76.2407 201.649ZM78.1644 202.199L2.14342 123.644C1.58018 120.989 1.12418 118.297 0.779907 115.573L86.515 204.166C83.6898 203.613 80.9048 202.956 78.1644 202.199ZM58.8454 194.874C36.1002 183.725 18.0359 165.156 8.19392 142.534L58.8454 194.874ZM167.958 16.8519C182.943 26.2019 195.346 38.9844 203.93 54.0234L167.958 16.8519Z" fill="url(#paint0_linear_19_109)" fill-opacity="0.8"/>
<defs>
<linearGradient id="paint0_linear_19_109" x1="50.5229" y1="27.557" x2="160.449" y2="187.168" gradientUnits="userSpaceOnUse">
<stop stop-color="#F86A03"/>
<stop offset="0.500686" stop-color="#3D1CBF" stop-opacity="0.746875"/>
<stop offset="1" stop-color="#121212" stop-opacity="0"/>
</linearGradient>
</defs>
</svg>
